<?xml version="1.0" encoding="UTF-8" standalone="no"?>
<svg
   xmlns:dc="http://purl.org/dc/elements/1.1/"
   xmlns:cc="http://creativecommons.org/ns#"
   xmlns:rdf="http://www.w3.org/1999/02/22-rdf-syntax-ns#"
   xmlns:svg="http://www.w3.org/2000/svg"
   xmlns="http://www.w3.org/2000/svg"
   xmlns:sodipodi="http://sodipodi.sourceforge.net/DTD/sodipodi-0.dtd"
   xmlns:inkscape="http://www.inkscape.org/namespaces/inkscape"
   height="242.52"
   viewBox="0 0 745.88922 242.52"
   width="745.88922"
   version="1.1"
   id="svg61"
   sodipodi:docname="nextAuth_simple_name.svg"
   inkscape:version="0.92.4 (f8dce91, 2019-08-02)">
  <metadata
     id="metadata67">
    <rdf:RDF>
      <cc:Work
         rdf:about="">
        <dc:format>image/svg+xml</dc:format>
        <dc:type
           rdf:resource="http://purl.org/dc/dcmitype/StillImage" />
        <dc:title />
      </cc:Work>
    </rdf:RDF>
  </metadata>
  <defs
     id="defs65" />
  <sodipodi:namedview
     pagecolor="#ffffff"
     bordercolor="#666666"
     borderopacity="1"
     objecttolerance="10"
     gridtolerance="10"
     guidetolerance="10"
     inkscape:pageopacity="0"
     inkscape:pageshadow="2"
     inkscape:window-width="1920"
     inkscape:window-height="968"
     id="namedview63"
     showgrid="false"
     fit-margin-left="20"
     fit-margin-top="24"
     fit-margin-bottom="24"
     fit-margin-right="12"
     inkscape:zoom="0.88705535"
     inkscape:cx="-130.93585"
     inkscape:cy="113.71621"
     inkscape:window-x="0"
     inkscape:window-y="27"
     inkscape:window-maximized="1"
     inkscape:current-layer="g59" />
  <filter
     id="a"
     style="color-interpolation-filters:sRGB">
    <feFlood
       flood-opacity=".498039"
       result="flood"
       id="feFlood2" />
    <feComposite
       in="flood"
       in2="SourceGraphic"
       operator="in"
       result="composite1"
       id="feComposite4" />
    <feOffset
       dx="4"
       dy="4"
       result="offset"
       id="feOffset8" />
    <feComposite
       in="SourceGraphic"
       in2="offset"
       operator="over"
       result="composite2"
       id="feComposite10" />
  </filter>
  <filter
     id="b"
     style="color-interpolation-filters:sRGB">
    <feFlood
       flood-opacity=".498039"
       result="flood"
       id="feFlood13" />
    <feComposite
       in="flood"
       in2="SourceGraphic"
       operator="in"
       result="composite1"
       id="feComposite15" />
    <feGaussianBlur
       in="composite1"
       result="blur"
       stdDeviation="2"
       id="feGaussianBlur17" />
    <feOffset
       dx="3"
       dy="3"
       result="offset"
       id="feOffset19" />
    <feComposite
       in="SourceGraphic"
       in2="offset"
       operator="over"
       result="composite2"
       id="feComposite21" />
  </filter>
  <filter
     id="c"
     style="color-interpolation-filters:sRGB">
    <feFlood
       flood-opacity=".498039"
       result="flood"
       id="feFlood24" />
    <feComposite
       in="flood"
       in2="SourceGraphic"
       operator="in"
       result="composite1"
       id="feComposite26" />
    <feGaussianBlur
       in="composite1"
       result="blur"
       stdDeviation="2"
       id="feGaussianBlur28" />
    <feOffset
       dx="3"
       dy="3"
       result="offset"
       id="feOffset30" />
    <feComposite
       in="SourceGraphic"
       in2="offset"
       operator="over"
       result="composite2"
       id="feComposite32" />
  </filter>
  <g
     stroke-miterlimit="10"
     transform="translate(7.2599998,4.010001)"
     id="g39"
     style="fill:none;stroke:#5a287f;stroke-width:10;stroke-miterlimit:10;">
    <path
       d="m 75.2,36.2 h 92.7 l 44.6,78.5"
       id="path35"
       inkscape:connector-curvature="0" />
    <path
       d="M 168,198.3 75.3,197.9 30.9,119.2"
       id="path37"
       inkscape:connector-curvature="0" />
  </g>
  <g
     transform="translate(13.952567,6.109953)"
     id="g49"
     style="">
    <circle
       cx="115.00372"
       cy="115.15002"
       r="25.4"
       stroke-miterlimit="10"
       id="circle41"
       style="fill:none;stroke:#5a287f;stroke-width:12;stroke-miterlimit:10" />
    <g
       transform="matrix(0.99,0,0,0.99,-4.323131,-0.091868)"
       id="g47"
       style="fill:#5a287f">
      <path
         d="m 148.7,102 c -0.7,-1.2 -0.9,-2.7 -0.6,-4.2 0.1,-0.7 0.4,-1.4 0.8,-2 l 4,-6.9 c 3.8,-6.7 1.5,-15.3 -5.1,-19.1 -6.7,-3.8 -15.3,-1.5 -19.1,5.1 l -3.9,6.7 c -1,1.9 -2.9,3.2 -5.2,3.3 v 0.3 h 3 l -1,1.7 c -0.8,1.4 -0.3,3.3 1.1,4.1 l 19.1,11 c 1.4,0.8 3.3,0.3 4.1,-1.1 l 0.5,-0.9 -0.3,1.3 z"
         id="path43"
         inkscape:connector-curvature="0" />
      <path
         d="m 153.2,142.7 -4,-7 c -1,-1.7 -1.1,-3.8 -0.1,-5.6 l -1.7,-0.4 c -0.3,-0.1 -0.6,0.1 -0.7,0.5 l -0.2,0.8 -0.2,-0.3 c -0.8,-1.4 -2.7,-1.9 -4.1,-1.1 L 123,140.7 c -1.4,0.8 -1.9,2.7 -1.1,4.1 l 0.6,1 -0.8,-0.3 c -0.3,-0.1 -0.6,0 -0.7,0.4 l -0.7,1.9 c 1.1,-0.1 2.2,0.2 3.2,0.8 0.9,0.6 1.6,1.4 2,2.3 l 3.4,5.8 c 3.8,6.7 12.4,8.9 19.1,5.1 6.7,-3.8 9,-12.5 5.2,-19.1 z"
         id="path45"
         inkscape:connector-curvature="0" />
    </g>
  </g>
  <g
     font-size="40"
     letter-spacing="0"
     transform="translate(13.952567,1.724095)"
     word-spacing="0"
     id="g59"
     style="font-size:40px;font-family:'Helvetica Neue';letter-spacing:0;word-spacing:0">
    <text
       x="261.66995"
       y="144.58392"
       id="text53"
       style="fill:#5a287f;-inkscape-font-specification:'Arial Bold';font-family:Arial;font-weight:bold;font-style:normal;font-stretch:normal;font-variant:normal;">
      <tspan
         font-size="85.333336"
         font-weight="bold"
         x="261.66995"
         y="144.58392"
         id="tspan51"
         style="font-weight:bold;font-size:85.33333588px;font-family:Arial, sans-serif;fill:#191919;-inkscape-font-specification:'Arial, sans-serif Bold';font-style:normal;font-stretch:normal;font-variant:normal">nextAuth</tspan>
    </text>
  </g>
</svg>
